<mxfile host="app.diagrams.net" modified="2020-03-13T12:59:50.202Z" agent="Mozilla/5.0 (Windows NT 10.0; Win64; x64) AppleWebKit/537.36 (KHTML, like Gecko) Chrome/80.0.3987.132 Safari/537.36" etag="9nb_Fk5sdITu5tRlktUa" version="12.8.4" type="github">
  <diagram id="4ZIxGLmC_gH1Bq4bnzQN" name="Page-1">
    <mxGraphModel dx="1359" dy="626" grid="1" gridSize="10" guides="1" tooltips="1" connect="1" arrows="1" fold="1" page="1" pageScale="1" pageWidth="850" pageHeight="1100" math="0" shadow="0">
      <root>
        <mxCell id="0" />
        <mxCell id="1" style="locked=1;" parent="0" visible="0" />
        <mxCell id="OT6HhPJYxPwV4lRJUis--19" style="edgeStyle=orthogonalEdgeStyle;rounded=0;orthogonalLoop=1;jettySize=auto;html=1;entryX=0;entryY=0.5;entryDx=0;entryDy=0;entryPerimeter=0;strokeColor=#994C00;" edge="1" parent="1" source="OT6HhPJYxPwV4lRJUis--1" target="OT6HhPJYxPwV4lRJUis--7">
          <mxGeometry relative="1" as="geometry" />
        </mxCell>
        <mxCell id="OT6HhPJYxPwV4lRJUis--20" style="edgeStyle=orthogonalEdgeStyle;rounded=0;orthogonalLoop=1;jettySize=auto;html=1;exitX=1;exitY=0.3;exitDx=0;exitDy=0;entryX=0;entryY=0.5;entryDx=0;entryDy=0;entryPerimeter=0;strokeColor=#994C00;" edge="1" parent="1" source="OT6HhPJYxPwV4lRJUis--1" target="OT6HhPJYxPwV4lRJUis--10">
          <mxGeometry relative="1" as="geometry" />
        </mxCell>
        <mxCell id="OT6HhPJYxPwV4lRJUis--21" style="edgeStyle=orthogonalEdgeStyle;rounded=0;orthogonalLoop=1;jettySize=auto;html=1;exitX=1;exitY=0.7;exitDx=0;exitDy=0;entryX=-0.025;entryY=0.683;entryDx=0;entryDy=0;entryPerimeter=0;strokeColor=#994C00;" edge="1" parent="1" source="OT6HhPJYxPwV4lRJUis--1" target="OT6HhPJYxPwV4lRJUis--11">
          <mxGeometry relative="1" as="geometry" />
        </mxCell>
        <mxCell id="OT6HhPJYxPwV4lRJUis--1" value="&lt;font color=&quot;#ff8000&quot;&gt;SAS&lt;/font&gt;" style="shape=cylinder;whiteSpace=wrap;html=1;boundedLbl=1;backgroundOutline=1;fillColor=#ffe6cc;strokeColor=#d79b00;" vertex="1" parent="1">
          <mxGeometry x="60" y="260" width="60" height="80" as="geometry" />
        </mxCell>
        <mxCell id="OT6HhPJYxPwV4lRJUis--16" style="edgeStyle=orthogonalEdgeStyle;rounded=0;orthogonalLoop=1;jettySize=auto;html=1;entryX=0;entryY=0;entryDx=40;entryDy=30;entryPerimeter=0;exitX=0;exitY=0.5;exitDx=0;exitDy=0;exitPerimeter=0;strokeColor=#0000FF;" edge="1" parent="1" source="OT6HhPJYxPwV4lRJUis--2" target="OT6HhPJYxPwV4lRJUis--13">
          <mxGeometry relative="1" as="geometry" />
        </mxCell>
        <mxCell id="OT6HhPJYxPwV4lRJUis--17" style="edgeStyle=orthogonalEdgeStyle;rounded=0;orthogonalLoop=1;jettySize=auto;html=1;exitX=0;exitY=0.3;exitDx=0;exitDy=0;entryX=0;entryY=0;entryDx=40;entryDy=45;entryPerimeter=0;strokeColor=#0000FF;" edge="1" parent="1" source="OT6HhPJYxPwV4lRJUis--2" target="OT6HhPJYxPwV4lRJUis--15">
          <mxGeometry relative="1" as="geometry" />
        </mxCell>
        <mxCell id="OT6HhPJYxPwV4lRJUis--18" style="edgeStyle=orthogonalEdgeStyle;rounded=0;orthogonalLoop=1;jettySize=auto;html=1;exitX=0;exitY=0.7;exitDx=0;exitDy=0;entryX=0;entryY=0;entryDx=40;entryDy=45;entryPerimeter=0;strokeColor=#0000FF;" edge="1" parent="1" source="OT6HhPJYxPwV4lRJUis--2" target="OT6HhPJYxPwV4lRJUis--14">
          <mxGeometry relative="1" as="geometry" />
        </mxCell>
        <mxCell id="OT6HhPJYxPwV4lRJUis--2" value="&lt;font color=&quot;#004c99&quot;&gt;MyAD&lt;/font&gt;" style="shape=cylinder;whiteSpace=wrap;html=1;boundedLbl=1;backgroundOutline=1;fillColor=#dae8fc;strokeColor=#6c8ebf;" vertex="1" parent="1">
          <mxGeometry x="730" y="260" width="60" height="80" as="geometry" />
        </mxCell>
        <mxCell id="OT6HhPJYxPwV4lRJUis--7" value="" style="shape=note;whiteSpace=wrap;html=1;backgroundOutline=1;darkOpacity=0.05;fillColor=#ffe6cc;strokeColor=#d79b00;" vertex="1" parent="1">
          <mxGeometry x="200" y="270" width="40" height="60" as="geometry" />
        </mxCell>
        <mxCell id="OT6HhPJYxPwV4lRJUis--10" value="" style="shape=note;whiteSpace=wrap;html=1;backgroundOutline=1;darkOpacity=0.05;fillColor=#ffe6cc;strokeColor=#d79b00;" vertex="1" parent="1">
          <mxGeometry x="200" y="180" width="40" height="60" as="geometry" />
        </mxCell>
        <mxCell id="OT6HhPJYxPwV4lRJUis--11" value="" style="shape=note;whiteSpace=wrap;html=1;backgroundOutline=1;darkOpacity=0.05;fillColor=#ffe6cc;strokeColor=#d79b00;" vertex="1" parent="1">
          <mxGeometry x="200" y="360" width="40" height="60" as="geometry" />
        </mxCell>
        <mxCell id="OT6HhPJYxPwV4lRJUis--13" value="" style="shape=note;whiteSpace=wrap;html=1;backgroundOutline=1;darkOpacity=0.05;fillColor=#dae8fc;strokeColor=#6c8ebf;" vertex="1" parent="1">
          <mxGeometry x="620" y="270" width="40" height="60" as="geometry" />
        </mxCell>
        <mxCell id="OT6HhPJYxPwV4lRJUis--14" value="" style="shape=note;whiteSpace=wrap;html=1;backgroundOutline=1;darkOpacity=0.05;fillColor=#dae8fc;strokeColor=#6c8ebf;" vertex="1" parent="1">
          <mxGeometry x="620" y="360" width="40" height="60" as="geometry" />
        </mxCell>
        <mxCell id="OT6HhPJYxPwV4lRJUis--15" value="" style="shape=note;whiteSpace=wrap;html=1;backgroundOutline=1;darkOpacity=0.05;fillColor=#dae8fc;strokeColor=#6c8ebf;" vertex="1" parent="1">
          <mxGeometry x="620" y="180" width="40" height="60" as="geometry" />
        </mxCell>
        <mxCell id="OT6HhPJYxPwV4lRJUis--22" value="general comments" style="text;html=1;align=center;verticalAlign=middle;resizable=0;points=[];autosize=1;" vertex="1" parent="1">
          <mxGeometry x="584" y="239" width="110" height="20" as="geometry" />
        </mxCell>
        <mxCell id="OT6HhPJYxPwV4lRJUis--23" value="general comments" style="text;html=1;align=center;verticalAlign=middle;resizable=0;points=[];autosize=1;" vertex="1" parent="1">
          <mxGeometry x="165" y="239" width="110" height="20" as="geometry" />
        </mxCell>
        <mxCell id="OT6HhPJYxPwV4lRJUis--24" value="milestone comments" style="text;html=1;align=center;verticalAlign=middle;resizable=0;points=[];autosize=1;" vertex="1" parent="1">
          <mxGeometry x="160" y="330" width="130" height="20" as="geometry" />
        </mxCell>
        <mxCell id="OT6HhPJYxPwV4lRJUis--25" value="milestone comments" style="text;html=1;align=center;verticalAlign=middle;resizable=0;points=[];autosize=1;" vertex="1" parent="1">
          <mxGeometry x="574" y="330" width="130" height="20" as="geometry" />
        </mxCell>
        <mxCell id="OT6HhPJYxPwV4lRJUis--26" value="significant items comments" style="text;html=1;align=center;verticalAlign=middle;resizable=0;points=[];autosize=1;" vertex="1" parent="1">
          <mxGeometry x="145" y="420" width="160" height="20" as="geometry" />
        </mxCell>
        <mxCell id="OT6HhPJYxPwV4lRJUis--27" value="significant items comments" style="text;html=1;align=center;verticalAlign=middle;resizable=0;points=[];autosize=1;" vertex="1" parent="1">
          <mxGeometry x="560" y="430" width="160" height="20" as="geometry" />
        </mxCell>
        <mxCell id="OT6HhPJYxPwV4lRJUis--28" value="" style="endArrow=classic;startArrow=classic;html=1;strokeColor=#009900;strokeWidth=2;" edge="1" parent="1">
          <mxGeometry width="50" height="50" relative="1" as="geometry">
            <mxPoint x="260" y="220" as="sourcePoint" />
            <mxPoint x="610" y="220" as="targetPoint" />
          </mxGeometry>
        </mxCell>
        <mxCell id="OT6HhPJYxPwV4lRJUis--29" value="" style="endArrow=classic;startArrow=classic;html=1;strokeColor=#009900;strokeWidth=2;" edge="1" parent="1">
          <mxGeometry width="50" height="50" relative="1" as="geometry">
            <mxPoint x="260" y="310" as="sourcePoint" />
            <mxPoint x="610" y="310" as="targetPoint" />
          </mxGeometry>
        </mxCell>
        <mxCell id="OT6HhPJYxPwV4lRJUis--30" value="" style="endArrow=classic;startArrow=classic;html=1;strokeColor=#009900;strokeWidth=2;" edge="1" parent="1">
          <mxGeometry width="50" height="50" relative="1" as="geometry">
            <mxPoint x="250" y="400" as="sourcePoint" />
            <mxPoint x="600" y="400" as="targetPoint" />
          </mxGeometry>
        </mxCell>
        <mxCell id="OT6HhPJYxPwV4lRJUis--31" value="compare" style="text;html=1;align=center;verticalAlign=middle;resizable=0;points=[];autosize=1;fontColor=#006600;" vertex="1" parent="1">
          <mxGeometry x="410" y="200" width="60" height="20" as="geometry" />
        </mxCell>
        <mxCell id="OT6HhPJYxPwV4lRJUis--32" value="compare" style="text;html=1;align=center;verticalAlign=middle;resizable=0;points=[];autosize=1;fontColor=#006600;" vertex="1" parent="1">
          <mxGeometry x="410" y="290" width="60" height="20" as="geometry" />
        </mxCell>
        <mxCell id="OT6HhPJYxPwV4lRJUis--33" value="compare" style="text;html=1;align=center;verticalAlign=middle;resizable=0;points=[];autosize=1;fontColor=#006600;" vertex="1" parent="1">
          <mxGeometry x="410" y="380" width="60" height="20" as="geometry" />
        </mxCell>
        <mxCell id="OT6HhPJYxPwV4lRJUis--34" value="Untitled Layer" parent="0" />
        <mxCell id="OT6HhPJYxPwV4lRJUis--35" value="" style="shape=note;whiteSpace=wrap;html=1;backgroundOutline=1;darkOpacity=0.05;fillColor=#ffe6cc;strokeColor=#d79b00;" vertex="1" parent="OT6HhPJYxPwV4lRJUis--34">
          <mxGeometry x="185" y="190" width="40" height="60" as="geometry" />
        </mxCell>
        <mxCell id="OT6HhPJYxPwV4lRJUis--36" value="" style="shape=note;whiteSpace=wrap;html=1;backgroundOutline=1;darkOpacity=0.05;fillColor=#dae8fc;strokeColor=#6c8ebf;" vertex="1" parent="OT6HhPJYxPwV4lRJUis--34">
          <mxGeometry x="600" y="190" width="40" height="60" as="geometry" />
        </mxCell>
        <mxCell id="OT6HhPJYxPwV4lRJUis--37" value="" style="endArrow=classic;startArrow=classic;html=1;strokeColor=#009900;strokeWidth=2;" edge="1" parent="OT6HhPJYxPwV4lRJUis--34">
          <mxGeometry width="50" height="50" relative="1" as="geometry">
            <mxPoint x="240" y="230" as="sourcePoint" />
            <mxPoint x="590" y="230" as="targetPoint" />
          </mxGeometry>
        </mxCell>
        <mxCell id="OT6HhPJYxPwV4lRJUis--38" value="compare" style="text;html=1;align=center;verticalAlign=middle;resizable=0;points=[];autosize=1;fontColor=#006600;" vertex="1" parent="OT6HhPJYxPwV4lRJUis--34">
          <mxGeometry x="380" y="210" width="60" height="20" as="geometry" />
        </mxCell>
        <mxCell id="OT6HhPJYxPwV4lRJUis--40" value="" style="shape=note;whiteSpace=wrap;html=1;backgroundOutline=1;darkOpacity=0.05;fillColor=#d5e8d4;strokeColor=#82b366;" vertex="1" parent="OT6HhPJYxPwV4lRJUis--34">
          <mxGeometry x="480" y="290" width="40" height="60" as="geometry" />
        </mxCell>
        <mxCell id="OT6HhPJYxPwV4lRJUis--41" value="" style="shape=note;whiteSpace=wrap;html=1;backgroundOutline=1;darkOpacity=0.05;fillColor=#d5e8d4;strokeColor=#82b366;" vertex="1" parent="OT6HhPJYxPwV4lRJUis--34">
          <mxGeometry x="395" y="290" width="40" height="60" as="geometry" />
        </mxCell>
        <mxCell id="OT6HhPJYxPwV4lRJUis--42" value="" style="shape=note;whiteSpace=wrap;html=1;backgroundOutline=1;darkOpacity=0.05;fillColor=#d5e8d4;strokeColor=#82b366;" vertex="1" parent="OT6HhPJYxPwV4lRJUis--34">
          <mxGeometry x="310" y="290" width="40" height="60" as="geometry" />
        </mxCell>
        <mxCell id="OT6HhPJYxPwV4lRJUis--43" value="mismatch file" style="text;html=1;align=center;verticalAlign=middle;resizable=0;points=[];autosize=1;fontColor=#006600;" vertex="1" parent="OT6HhPJYxPwV4lRJUis--34">
          <mxGeometry x="285" y="350" width="90" height="20" as="geometry" />
        </mxCell>
        <mxCell id="OT6HhPJYxPwV4lRJUis--46" value="" style="endArrow=classic;html=1;strokeColor=#009900;strokeWidth=2;fontColor=#006600;entryX=0;entryY=0;entryDx=25;entryDy=15;entryPerimeter=0;" edge="1" parent="OT6HhPJYxPwV4lRJUis--34" target="OT6HhPJYxPwV4lRJUis--42">
          <mxGeometry width="50" height="50" relative="1" as="geometry">
            <mxPoint x="335" y="230" as="sourcePoint" />
            <mxPoint x="450" y="300" as="targetPoint" />
          </mxGeometry>
        </mxCell>
        <mxCell id="OT6HhPJYxPwV4lRJUis--47" value="" style="endArrow=classic;html=1;strokeColor=#009900;strokeWidth=2;fontColor=#006600;entryX=0;entryY=0;entryDx=25;entryDy=15;entryPerimeter=0;" edge="1" parent="OT6HhPJYxPwV4lRJUis--34">
          <mxGeometry width="50" height="50" relative="1" as="geometry">
            <mxPoint x="425" y="230" as="sourcePoint" />
            <mxPoint x="425" y="305" as="targetPoint" />
          </mxGeometry>
        </mxCell>
        <mxCell id="OT6HhPJYxPwV4lRJUis--48" value="" style="endArrow=classic;html=1;strokeColor=#009900;strokeWidth=2;fontColor=#006600;entryX=0;entryY=0;entryDx=25;entryDy=15;entryPerimeter=0;" edge="1" parent="OT6HhPJYxPwV4lRJUis--34">
          <mxGeometry width="50" height="50" relative="1" as="geometry">
            <mxPoint x="510" y="230" as="sourcePoint" />
            <mxPoint x="510" y="305" as="targetPoint" />
          </mxGeometry>
        </mxCell>
        <mxCell id="OT6HhPJYxPwV4lRJUis--49" value="conflict&lt;br&gt;(sas side)" style="text;html=1;align=center;verticalAlign=middle;resizable=0;points=[];autosize=1;fontColor=#006600;" vertex="1" parent="OT6HhPJYxPwV4lRJUis--34">
          <mxGeometry x="378" y="351" width="70" height="30" as="geometry" />
        </mxCell>
        <mxCell id="OT6HhPJYxPwV4lRJUis--50" value="conflict&lt;br&gt;(myad side)" style="text;html=1;align=center;verticalAlign=middle;resizable=0;points=[];autosize=1;fontColor=#006600;" vertex="1" parent="OT6HhPJYxPwV4lRJUis--34">
          <mxGeometry x="461" y="351" width="80" height="30" as="geometry" />
        </mxCell>
      </root>
    </mxGraphModel>
  </diagram>
</mxfile>
